<svg xmlns="http://www.w3.org/2000/svg" xmlns:xlink="http://www.w3.org/1999/xlink" width="500" zoomAndPan="magnify" viewBox="0 0 375 374.999991" height="500" preserveAspectRatio="xMidYMid meet" version="1.0"><defs><clipPath id="id1"><path d="M 134 112.5 L 241 112.5 L 241 262 L 134 262 Z M 134 112.5 " clip-rule="nonzero"/></clipPath></defs><g clip-path="url(#id1)"><path fill="#961711" d="M 150.722656 199.441406 C 150.042969 197.738281 149.347656 196.046875 148.652344 194.359375 C 146.949219 189.609375 147.628906 185.203125 151.066406 181.480469 C 153.816406 178.433594 157.242188 176.050781 161.707031 175.71875 C 164.453125 175.386719 166.855469 176.050781 168.90625 177.40625 C 169.253906 177.753906 169.601562 177.753906 170.292969 178.085938 C 169.949219 177.074219 169.601562 176.398438 169.253906 175.386719 C 165.828125 164.875 162.054688 154.363281 158.613281 143.867188 C 157.242188 139.464844 156.214844 135.058594 155.1875 130.65625 C 155.1875 126.585938 155.519531 122.859375 156.894531 119.46875 C 159.640625 113.707031 164.789062 112.363281 168.90625 113.042969 C 171.65625 113.707031 173.375 115.410156 174.746094 117.445312 C 177.839844 121.503906 180.242188 125.90625 182.640625 130.65625 C 187.453125 140.140625 190.882812 150.308594 194.320312 160.472656 C 195 162.507812 195.695312 164.195312 196.375 166.230469 C 196.375 166.5625 196.722656 166.5625 197.054688 166.910156 C 197.75 164.875 198.773438 162.839844 199.46875 160.472656 C 202.214844 151.996094 205.292969 143.535156 209.414062 135.738281 C 211.828125 130.65625 214.574219 125.226562 218.347656 120.824219 C 218.695312 119.8125 219.722656 119.132812 220.402344 118.457031 C 225.214844 114.050781 231.734375 115.410156 234.828125 119.46875 C 237.5625 122.859375 238.253906 126.585938 237.910156 130.65625 C 237.230469 136.417969 235.507812 142.179688 233.789062 147.9375 C 230.710938 157.078125 227.269531 166.230469 224.175781 175.386719 C 224.175781 175.71875 223.84375 176.050781 223.84375 176.398438 C 224.523438 176.742188 225.214844 176.742188 225.894531 177.074219 C 230.015625 178.433594 234.136719 180.121094 236.535156 183.847656 C 238.253906 186.5625 239.28125 189.609375 239.976562 192.667969 C 241.003906 197.738281 241.003906 202.820312 240.65625 207.914062 C 240.324219 214.6875 238.949219 221.457031 236.535156 227.566406 C 231.390625 240.097656 223.148438 249.917969 210.789062 256.023438 C 204.613281 259.070312 197.75 261.105469 190.882812 261.4375 C 181.269531 262.460938 172 261.105469 163.082031 257.378906 C 151.402344 252.628906 139.734375 240.777344 136.308594 229.933594 C 134.585938 224.503906 133.90625 219.421875 134.585938 213.660156 C 135.613281 206.558594 140.082031 201.808594 146.949219 199.773438 C 148.320312 199.773438 149.695312 199.773438 150.722656 199.441406 Z M 149 218.410156 C 149.347656 219.089844 150.042969 219.421875 150.375 220.101562 C 152.09375 222.136719 153.46875 224.171875 155.1875 226.207031 C 157.242188 228.578125 159.308594 230.945312 162.054688 231.96875 C 164.453125 232.980469 166.507812 232.980469 168.90625 231.96875 C 170.976562 230.945312 171.320312 229.601562 170.976562 227.566406 C 170.628906 226.886719 170.292969 226.207031 169.949219 225.53125 C 167.535156 220.78125 164.453125 216.375 160.679688 212.652344 C 158.613281 210.617188 156.894531 208.578125 154.496094 206.890625 C 152.441406 205.199219 150.375 205.199219 148.320312 206.558594 C 145.226562 208.578125 143.175781 211.292969 142.132812 215.019531 C 141.109375 218.742188 141.800781 222.46875 143.175781 225.863281 C 146.601562 235.015625 152.441406 242.464844 160.679688 247.546875 C 173.027344 255.34375 186.429688 257.035156 200.148438 252.628906 C 215.949219 247.546875 225.894531 236.371094 231.390625 221.125 C 233.789062 214.6875 234.136719 207.570312 234.136719 200.796875 C 234.136719 197.402344 233.789062 194.011719 232.761719 190.964844 C 231.734375 188.25 230.015625 185.882812 227.269531 184.527344 C 225.546875 183.847656 224.175781 183.167969 222.46875 182.488281 C 211.828125 178.765625 200.84375 177.753906 189.855469 176.742188 C 187.453125 176.742188 185.386719 176.742188 182.988281 177.40625 C 181.269531 178.085938 179.894531 179.109375 179.894531 181.144531 C 179.5625 185.203125 180.921875 188.597656 184.363281 190.964844 C 186.761719 192.667969 189.855469 193.679688 192.949219 194.359375 C 199.816406 195.714844 207.015625 195.714844 214.230469 195.714844 C 215.949219 195.714844 217.308594 195.714844 219.027344 196.046875 C 220.75 196.394531 221.09375 197.738281 221.429688 199.441406 C 221.773438 200.796875 220.75 201.476562 219.722656 201.808594 C 217.65625 202.820312 215.949219 203.496094 213.882812 204.175781 C 205.640625 207.234375 199.46875 212.652344 195 220.101562 C 191.90625 225.53125 190.882812 231.289062 193.28125 237.382812 C 193.976562 238.742188 194.320312 240.097656 194.65625 241.789062 C 195 243.144531 195.347656 244.847656 195 246.539062 C 191.574219 245.859375 189.507812 244.15625 187.789062 241.453125 C 186.429688 238.742188 185.734375 235.695312 185.386719 232.648438 C 185.042969 230.945312 185.042969 229.253906 185.042969 227.566406 C 182.988281 228.910156 180.589844 228.578125 178.1875 228.230469 C 178.1875 228.910156 178.519531 229.253906 178.519531 229.601562 C 179.5625 233.660156 177.839844 237.382812 174.402344 239.75 C 171.65625 241.789062 168.226562 241.789062 165.132812 241.109375 C 159.640625 239.75 155.519531 236.371094 152.09375 231.96875 C 150.375 229.601562 148.652344 226.886719 148.320312 224.171875 C 147.292969 221.457031 147.292969 220.101562 149 218.410156 Z M 190.203125 171.3125 L 190.203125 170.980469 C 187.109375 161.828125 184.015625 152.34375 180.589844 143.1875 C 178.519531 137.429688 176.121094 131.335938 173.722656 125.574219 C 173.027344 123.882812 172 122.179688 170.292969 120.824219 C 167.203125 118.800781 163.761719 119.8125 162.734375 123.191406 C 162.386719 124.5625 162.054688 125.90625 162.386719 127.261719 C 162.386719 131.335938 163.429688 135.058594 164.789062 138.785156 C 168.90625 149.972656 172.695312 161.148438 176.816406 172.324219 C 180.921875 169.625 185.734375 171.3125 190.203125 171.3125 Z M 216.28125 175.039062 C 216.28125 174.707031 216.628906 174.707031 216.628906 174.359375 C 221.429688 161.496094 225.894531 148.617188 230.015625 135.390625 C 230.710938 132.691406 231.390625 130.324219 231.042969 127.261719 C 230.710938 124.5625 228.988281 123.191406 226.921875 122.859375 C 225.214844 122.859375 223.496094 123.539062 222.46875 124.894531 C 220.402344 127.261719 219.027344 129.976562 218.003906 132.691406 C 212.507812 145.558594 208.386719 158.78125 203.933594 171.992188 C 203.933594 171.992188 203.933594 172.324219 203.933594 172.671875 C 207.707031 173.351562 211.828125 174.027344 216.28125 175.039062 Z M 185.042969 215.699219 C 185.042969 215.019531 185.042969 214.339844 184.707031 213.660156 C 183.683594 211.292969 182.988281 208.925781 181.960938 206.210938 C 179.214844 199.773438 175.773438 193.332031 171.320312 187.570312 C 169.949219 185.882812 168.226562 184.191406 166.175781 183.167969 C 161.707031 181.144531 155.1875 185.203125 155.519531 190.285156 L 155.519531 190.632812 C 156.214844 192.320312 156.5625 194.359375 157.242188 196.046875 C 161.015625 203.496094 166.175781 209.9375 172 216.042969 C 173.722656 217.734375 175.773438 219.421875 178.1875 220.449219 C 181.613281 221.804688 185.042969 219.421875 185.042969 215.699219 Z M 191.574219 212.320312 C 194.320312 208.246094 198.09375 205.53125 202.214844 202.488281 C 196.722656 202.152344 191.574219 201.476562 186.761719 199.773438 C 188.132812 203.84375 189.855469 207.914062 191.574219 212.320312 Z M 191.574219 212.320312 " fill-opacity="1" fill-rule="nonzero"/></g></svg>