<svg xmlns="http://www.w3.org/2000/svg" xmlns:xlink="http://www.w3.org/1999/xlink" width="500" zoomAndPan="magnify" viewBox="0 0 375 374.999991" height="500" preserveAspectRatio="xMidYMid meet" version="1.0"><defs><clipPath id="id1"><path d="M 121.773438 112.5 L 253.023438 112.5 L 253.023438 262.5 L 121.773438 262.5 Z M 121.773438 112.5 " clip-rule="nonzero"/></clipPath><clipPath id="id2"><path d="M 120.375 112.5 L 254.625 112.5 L 254.625 262.5 L 120.375 262.5 Z M 120.375 112.5 " clip-rule="nonzero"/></clipPath></defs><g clip-path="url(#id1)"><path fill="#961711" d="M 133.6875 247.175781 L 121.734375 112.921875 L 253.058594 112.921875 L 241.097656 247.15625 L 187.3125 262.082031 Z M 133.6875 247.175781 " fill-opacity="1" fill-rule="nonzero"/></g><path fill="#961711" d="M 230.855469 238.605469 L 241.078125 123.902344 L 187.398438 123.902344 L 187.398438 250.675781 Z M 230.855469 238.605469 " fill-opacity="1" fill-rule="nonzero"/><path fill="#ffffff" d="M 187.34375 140.363281 L 146.171875 140.363281 L 150.605469 190.15625 L 187.398438 190.15625 L 187.398438 173.691406 L 165.644531 173.691406 L 164.140625 156.832031 L 187.398438 156.832031 L 187.398438 140.363281 Z M 187.398438 216.398438 L 187.328125 216.417969 L 169.019531 211.46875 L 167.855469 198.335938 L 151.339844 198.335938 L 153.644531 224.1875 L 187.324219 233.511719 L 187.398438 233.488281 Z M 187.398438 216.398438 " fill-opacity="1" fill-rule="nonzero"/><path fill="#ffffff" d="M 187.34375 190.15625 L 207.585938 190.15625 L 205.726562 211.503906 L 187.386719 216.460938 L 187.386719 233.589844 L 221.09375 224.234375 L 225.609375 173.683594 L 187.398438 173.683594 Z M 228.132812 144.785156 L 228.523438 140.363281 L 187.332031 140.363281 L 187.332031 156.828125 L 227.042969 156.828125 L 227.367188 153.128906 Z M 228.132812 144.785156 " fill-opacity="1" fill-rule="nonzero"/><g clip-path="url(#id2)"><path fill="#961711" d="M 254.605469 112.5 L 120.394531 112.5 L 132.238281 246.710938 L 187.5 262.5 L 242.761719 246.710938 Z M 254.605469 112.5 " fill-opacity="1" fill-rule="nonzero"/></g><path fill="#961711" d="M 187.5 124.34375 L 187.5 250.261719 L 231.710938 237.632812 L 241.578125 124.34375 Z M 187.5 124.34375 " fill-opacity="1" fill-rule="nonzero"/><path fill="#ffffff" d="M 223.421875 144.078125 L 187.5 144.078125 L 187.5 159.867188 L 206.84375 159.867188 L 205.65625 175.65625 L 187.5 175.65625 L 187.5 191.449219 L 204.867188 191.449219 L 203.683594 209.210938 L 187.5 214.738281 L 187.5 231.316406 L 218.683594 221.050781 L 221.449219 175.65625 Z M 223.421875 144.078125 " fill-opacity="1" fill-rule="nonzero"/><path fill="#ffffff" d="M 187.5 144.078125 L 187.5 159.867188 L 152.367188 159.867188 L 151.183594 144.078125 Z M 169.34375 175.65625 L 170.132812 191.449219 L 187.5 191.449219 L 187.5 175.65625 Z M 170.921875 199.34375 L 155.132812 199.34375 L 156.316406 221.050781 L 187.5 231.316406 L 187.5 214.738281 L 171.316406 209.210938 Z M 170.921875 199.34375 " fill-opacity="1" fill-rule="nonzero"/></svg>