<svg xmlns="http://www.w3.org/2000/svg" xmlns:xlink="http://www.w3.org/1999/xlink" width="500" zoomAndPan="magnify" viewBox="0 0 375 374.999991" height="500" preserveAspectRatio="xMidYMid meet" version="1.0"><defs><g/></defs><g fill="#961711" fill-opacity="1"><g transform="translate(142.798823, 221.491567)"><g><path d="M 25.90625 0.828125 C 19.3125 0.828125 14.171875 -1.195312 10.484375 -5.25 C 6.804688 -9.3125 4.96875 -15 4.96875 -22.3125 C 4.96875 -29.539062 6.742188 -35.332031 10.296875 -39.6875 C 13.859375 -44.039062 18.65625 -46.21875 24.6875 -46.21875 C 30.03125 -46.21875 34.242188 -44.351562 37.328125 -40.625 C 40.410156 -36.894531 41.953125 -31.832031 41.953125 -25.4375 L 41.953125 -22.109375 L 9.296875 -22.109375 C 9.359375 -15.878906 10.8125 -11.125 13.65625 -7.84375 C 16.507812 -4.5625 20.59375 -2.921875 25.90625 -2.921875 C 28.488281 -2.921875 30.757812 -3.097656 32.71875 -3.453125 C 34.675781 -3.816406 37.160156 -4.597656 40.171875 -5.796875 L 40.171875 -2.046875 C 37.609375 -0.929688 35.242188 -0.175781 33.078125 0.21875 C 30.910156 0.625 28.519531 0.828125 25.90625 0.828125 Z M 24.6875 -42.546875 C 20.320312 -42.546875 16.816406 -41.101562 14.171875 -38.21875 C 11.535156 -35.34375 9.992188 -31.195312 9.546875 -25.78125 L 37.578125 -25.78125 C 37.578125 -31.03125 36.4375 -35.132812 34.15625 -38.09375 C 31.875 -41.0625 28.71875 -42.546875 24.6875 -42.546875 Z M 24.6875 -42.546875 "/></g></g></g><g fill="#961711" fill-opacity="1"><g transform="translate(189.672173, 221.491567)"><g><path d="M 18.734375 -23.3125 L 2.921875 -45.34375 L 7.671875 -45.34375 L 21.1875 -26.234375 L 34.578125 -45.34375 L 39.125 -45.34375 L 23.5625 -23.3125 L 40.25 0 L 35.453125 0 L 21.1875 -20.234375 L 6.84375 0 L 2.296875 0 Z M 18.734375 -23.3125 "/></g></g></g></svg>