<svg xmlns="http://www.w3.org/2000/svg" xmlns:xlink="http://www.w3.org/1999/xlink" width="500" zoomAndPan="magnify" viewBox="0 0 375 374.999991" height="500" preserveAspectRatio="xMidYMid meet" version="1.0"><defs><clipPath id="id1"><path d="M 135.75 112.5 L 239.25 112.5 L 239.25 262.5 L 135.75 262.5 Z M 135.75 112.5 " clip-rule="nonzero"/></clipPath></defs><g clip-path="url(#id1)"><path fill="#961711" d="M 169.398438 112.5 C 153.707031 112.5 140.949219 125.261719 140.949219 140.949219 C 140.949219 149.523438 144.777344 157.207031 150.796875 162.425781 C 141.867188 167.230469 135.777344 176.667969 135.777344 187.5 C 135.777344 197.125 140.59375 205.625 147.929688 210.777344 C 140.59375 215.925781 135.777344 224.429688 135.777344 234.050781 C 135.777344 249.738281 148.535156 262.5 164.222656 262.5 C 179.910156 262.5 192.671875 249.738281 192.671875 234.050781 L 192.671875 169.398438 L 210.777344 169.398438 C 226.464844 169.398438 239.222656 156.636719 239.222656 140.949219 C 239.222656 125.261719 226.464844 112.5 210.777344 112.5 Z M 169.398438 122.84375 L 210.777344 122.84375 C 220.757812 122.84375 228.878906 130.964844 228.878906 140.949219 C 228.878906 150.929688 220.757812 159.050781 210.777344 159.050781 L 169.398438 159.050781 C 159.414062 159.050781 151.292969 150.929688 151.292969 140.949219 C 151.292969 130.964844 159.414062 122.84375 169.398438 122.84375 Z M 164.222656 169.398438 L 182.328125 169.398438 L 182.328125 205.601562 L 164.222656 205.601562 C 154.242188 205.601562 146.121094 197.484375 146.121094 187.5 C 146.121094 177.515625 154.242188 169.398438 164.222656 169.398438 Z M 213.363281 169.398438 C 212.683594 169.398438 212.007812 169.429688 211.335938 169.496094 C 210.660156 169.5625 209.992188 169.660156 209.324219 169.792969 C 208.660156 169.925781 208.003906 170.089844 207.355469 170.289062 C 206.707031 170.484375 206.070312 170.710938 205.445312 170.972656 C 204.820312 171.230469 204.207031 171.519531 203.609375 171.839844 C 203.011719 172.160156 202.429688 172.507812 201.867188 172.882812 C 201.304688 173.261719 200.761719 173.664062 200.238281 174.09375 C 199.710938 174.523438 199.210938 174.976562 198.730469 175.457031 C 198.253906 175.933594 197.796875 176.4375 197.367188 176.960938 C 196.9375 177.484375 196.535156 178.027344 196.160156 178.589844 C 195.78125 179.15625 195.433594 179.734375 195.117188 180.332031 C 194.796875 180.929688 194.507812 181.542969 194.246094 182.167969 C 193.988281 182.792969 193.761719 183.433594 193.5625 184.082031 C 193.367188 184.730469 193.203125 185.386719 193.070312 186.050781 C 192.9375 186.714844 192.839844 187.382812 192.773438 188.058594 C 192.707031 188.734375 192.671875 189.410156 192.671875 190.085938 C 192.671875 190.765625 192.707031 191.441406 192.773438 192.113281 C 192.839844 192.789062 192.9375 193.457031 193.070312 194.121094 C 193.203125 194.789062 193.367188 195.445312 193.5625 196.09375 C 193.761719 196.742188 193.988281 197.378906 194.246094 198.003906 C 194.507812 198.628906 194.796875 199.242188 195.117188 199.839844 C 195.433594 200.4375 195.78125 201.015625 196.160156 201.582031 C 196.535156 202.144531 196.9375 202.6875 197.367188 203.210938 C 197.796875 203.734375 198.253906 204.238281 198.730469 204.714844 C 199.210938 205.195312 199.710938 205.648438 200.238281 206.078125 C 200.761719 206.507812 201.304688 206.914062 201.867188 207.289062 C 202.429688 207.664062 203.011719 208.011719 203.609375 208.332031 C 204.207031 208.652344 204.820312 208.941406 205.445312 209.199219 C 206.070312 209.460938 206.707031 209.6875 207.355469 209.886719 C 208.003906 210.082031 208.660156 210.246094 209.324219 210.378906 C 209.992188 210.511719 210.660156 210.609375 211.335938 210.675781 C 212.007812 210.742188 212.683594 210.777344 213.363281 210.777344 C 214.039062 210.777344 214.714844 210.742188 215.390625 210.675781 C 216.0625 210.609375 216.734375 210.511719 217.398438 210.378906 C 218.0625 210.246094 218.71875 210.082031 219.367188 209.886719 C 220.015625 209.6875 220.652344 209.460938 221.28125 209.199219 C 221.90625 208.941406 222.515625 208.652344 223.113281 208.332031 C 223.710938 208.011719 224.292969 207.664062 224.855469 207.289062 C 225.421875 206.914062 225.964844 206.507812 226.488281 206.078125 C 227.011719 205.648438 227.511719 205.195312 227.992188 204.714844 C 228.472656 204.238281 228.925781 203.734375 229.355469 203.210938 C 229.785156 202.6875 230.1875 202.144531 230.566406 201.582031 C 230.941406 201.015625 231.289062 200.4375 231.609375 199.839844 C 231.929688 199.242188 232.21875 198.628906 232.476562 198.003906 C 232.734375 197.378906 232.964844 196.742188 233.160156 196.09375 C 233.359375 195.445312 233.523438 194.789062 233.652344 194.121094 C 233.785156 193.457031 233.886719 192.789062 233.953125 192.113281 C 234.019531 191.441406 234.050781 190.765625 234.050781 190.085938 C 234.050781 189.410156 234.019531 188.734375 233.953125 188.058594 C 233.886719 187.382812 233.785156 186.714844 233.652344 186.050781 C 233.523438 185.386719 233.359375 184.730469 233.160156 184.082031 C 232.964844 183.433594 232.734375 182.792969 232.476562 182.167969 C 232.21875 181.542969 231.929688 180.929688 231.609375 180.332031 C 231.289062 179.734375 230.941406 179.15625 230.566406 178.589844 C 230.1875 178.027344 229.785156 177.484375 229.355469 176.960938 C 228.925781 176.4375 228.472656 175.933594 227.992188 175.457031 C 227.511719 174.976562 227.011719 174.523438 226.488281 174.09375 C 225.964844 173.664062 225.421875 173.261719 224.855469 172.882812 C 224.292969 172.507812 223.710938 172.160156 223.113281 171.839844 C 222.515625 171.519531 221.90625 171.230469 221.28125 170.972656 C 220.652344 170.710938 220.015625 170.484375 219.367188 170.289062 C 218.71875 170.089844 218.0625 169.925781 217.398438 169.792969 C 216.734375 169.660156 216.0625 169.5625 215.390625 169.496094 C 214.714844 169.429688 214.039062 169.398438 213.363281 169.398438 Z M 164.222656 215.949219 L 182.328125 215.949219 L 182.328125 234.050781 C 182.328125 244.035156 174.207031 252.15625 164.222656 252.15625 C 154.242188 252.15625 146.121094 244.035156 146.121094 234.050781 C 146.121094 224.070312 154.242188 215.949219 164.222656 215.949219 Z M 164.222656 215.949219 " fill-opacity="1" fill-rule="nonzero"/></g></svg>