<svg xmlns="http://www.w3.org/2000/svg" xmlns:xlink="http://www.w3.org/1999/xlink" width="500" zoomAndPan="magnify" viewBox="0 0 375 374.999991" height="500" preserveAspectRatio="xMidYMid meet" version="1.0"><defs><clipPath id="id1"><path d="M 121 112.5 L 253.703125 112.5 L 253.703125 262.5 L 121 262.5 Z M 121 112.5 " clip-rule="nonzero"/></clipPath><clipPath id="id2"><path d="M 112.5 112.5 L 262.5 112.5 L 262.5 262.5 L 112.5 262.5 Z M 112.5 112.5 " clip-rule="nonzero"/></clipPath></defs><g clip-path="url(#id1)"><path fill="#961711" d="M 187.328125 262.480469 C 185.273438 262.480469 183.355469 261.929688 181.574219 260.972656 L 163.351562 250.117188 C 160.613281 248.609375 161.984375 248.058594 162.804688 247.785156 C 166.503906 246.546875 167.1875 246.273438 171.027344 244.074219 C 171.4375 243.800781 171.984375 243.9375 172.394531 244.214844 L 186.367188 252.589844 C 186.914062 252.863281 187.605469 252.863281 188.015625 252.589844 L 242.679688 220.863281 C 243.226562 220.589844 243.5 220.039062 243.5 219.351562 L 243.5 156.027344 C 243.5 155.339844 243.226562 154.792969 242.679688 154.519531 L 188.015625 122.925781 C 187.46875 122.648438 186.78125 122.648438 186.367188 122.925781 L 131.707031 154.519531 C 131.15625 154.792969 130.882812 155.480469 130.882812 156.027344 L 130.882812 219.351562 C 130.882812 219.898438 131.15625 220.589844 131.703125 220.863281 L 146.636719 229.515625 C 154.722656 233.636719 159.789062 228.832031 159.789062 224.019531 L 159.789062 161.523438 C 159.789062 160.699219 160.476562 159.875 161.433594 159.875 L 168.421875 159.875 C 169.246094 159.875 170.066406 160.5625 170.066406 161.523438 L 170.066406 224.019531 C 170.066406 234.875 164.175781 241.191406 153.898438 241.191406 C 150.75 241.191406 148.28125 241.191406 141.296875 237.757812 L 126.910156 229.515625 C 123.347656 227.457031 121.15625 223.613281 121.15625 219.492188 L 121.15625 156.167969 C 121.15625 152.046875 123.347656 148.199219 126.910156 146.140625 L 181.574219 114.410156 C 184.996094 112.488281 189.660156 112.488281 193.082031 114.410156 L 247.75 146.140625 C 251.3125 148.199219 253.503906 152.046875 253.503906 156.167969 L 253.503906 219.488281 C 253.503906 223.609375 251.3125 227.457031 247.75 229.511719 L 193.082031 261.246094 C 191.304688 262.070312 189.246094 262.476562 187.328125 262.476562 Z M 204.183594 218.941406 C 180.207031 218.941406 175.273438 207.949219 175.273438 198.609375 C 175.273438 197.785156 175.957031 196.960938 176.917969 196.960938 L 184.042969 196.960938 C 184.863281 196.960938 185.546875 197.507812 185.546875 198.332031 C 186.640625 205.613281 189.796875 209.1875 204.316406 209.1875 C 215.824219 209.1875 220.757812 206.574219 220.757812 200.394531 C 220.757812 196.824219 219.386719 194.210938 201.445312 192.429688 C 186.507812 190.914062 177.191406 187.621094 177.191406 175.671875 C 177.191406 164.542969 186.507812 157.953125 202.125 157.953125 C 219.664062 157.953125 228.296875 163.996094 229.390625 177.179688 C 229.390625 177.59375 229.253906 178.003906 228.976562 178.417969 C 228.703125 178.695312 228.296875 178.96875 227.882812 178.96875 L 220.757812 178.96875 C 220.074219 178.96875 219.386719 178.417969 219.253906 177.730469 C 217.609375 170.179688 213.359375 167.707031 202.125 167.707031 C 189.523438 167.707031 188.015625 172.101562 188.015625 175.398438 C 188.015625 179.378906 189.796875 180.617188 206.785156 182.8125 C 223.636719 185.011719 231.582031 188.167969 231.582031 199.980469 C 231.445312 212.066406 221.582031 218.941406 204.183594 218.941406 Z M 204.183594 218.941406 " fill-opacity="1" fill-rule="nonzero"/></g><g clip-path="url(#id2)"><path fill="#961711" d="M 112.5 112.5 L 262.5 112.5 L 262.5 262.5 L 112.5 262.5 Z M 112.5 112.5 " fill-opacity="1" fill-rule="nonzero"/></g><path fill="#ffffff" d="M 151.941406 237.847656 L 163.417969 230.90625 C 165.632812 234.832031 167.648438 238.152344 172.480469 238.152344 C 177.109375 238.152344 180.035156 236.335938 180.035156 229.292969 L 180.035156 181.363281 L 194.125 181.363281 L 194.125 229.492188 C 194.125 244.089844 185.570312 250.738281 173.085938 250.738281 C 161.808594 250.738281 155.261719 244.898438 151.941406 237.847656 " fill-opacity="1" fill-rule="nonzero"/><path fill="#ffffff" d="M 201.785156 236.335938 L 213.261719 229.691406 C 216.285156 234.625 220.210938 238.253906 227.15625 238.253906 C 232.996094 238.253906 236.722656 235.335938 236.722656 231.304688 C 236.722656 226.46875 232.898438 224.757812 226.453125 221.941406 L 222.929688 220.429688 C 212.757812 216.097656 206.015625 210.667969 206.015625 199.183594 C 206.015625 188.613281 214.066406 180.554688 226.65625 180.554688 C 235.617188 180.554688 242.0625 183.679688 246.691406 191.835938 L 235.714844 198.886719 C 233.300781 194.554688 230.683594 192.84375 226.65625 192.84375 C 222.527344 192.84375 219.90625 195.464844 219.90625 198.886719 C 219.90625 203.117188 222.527344 204.828125 228.566406 207.445312 L 232.089844 208.953125 C 244.070312 214.089844 250.820312 219.324219 250.820312 231.105469 C 250.820312 243.789062 240.855469 250.738281 227.460938 250.738281 C 214.371094 250.738281 205.914062 244.492188 201.785156 236.335938 " fill-opacity="1" fill-rule="nonzero"/></svg>