<svg xmlns="http://www.w3.org/2000/svg" xmlns:xlink="http://www.w3.org/1999/xlink" width="500" zoomAndPan="magnify" viewBox="0 0 375 374.999991" height="500" preserveAspectRatio="xMidYMid meet" version="1.0"><defs><clipPath id="id1"><path d="M 112.5 112.5 L 262.5 112.5 L 262.5 262.5 L 112.5 262.5 Z M 112.5 112.5 " clip-rule="nonzero"/></clipPath></defs><g clip-path="url(#id1)"><path fill="#961711" d="M 135 112.5 L 240 112.5 C 240.738281 112.5 241.472656 112.535156 242.207031 112.609375 C 242.9375 112.679688 243.667969 112.789062 244.390625 112.933594 C 245.113281 113.074219 245.828125 113.253906 246.53125 113.46875 C 247.238281 113.683594 247.929688 113.929688 248.609375 114.210938 C 249.292969 114.496094 249.957031 114.808594 250.605469 115.15625 C 251.257812 115.503906 251.886719 115.882812 252.5 116.292969 C 253.113281 116.703125 253.703125 117.140625 254.273438 117.605469 C 254.84375 118.074219 255.390625 118.570312 255.910156 119.089844 C 256.429688 119.609375 256.925781 120.15625 257.394531 120.726562 C 257.859375 121.296875 258.296875 121.886719 258.707031 122.5 C 259.117188 123.113281 259.496094 123.742188 259.84375 124.394531 C 260.191406 125.042969 260.503906 125.707031 260.789062 126.390625 C 261.070312 127.070312 261.316406 127.761719 261.53125 128.46875 C 261.746094 129.171875 261.925781 129.886719 262.066406 130.609375 C 262.210938 131.332031 262.320312 132.0625 262.390625 132.792969 C 262.464844 133.527344 262.5 134.261719 262.5 135 L 262.5 240 C 262.5 240.738281 262.464844 241.472656 262.390625 242.207031 C 262.320312 242.9375 262.210938 243.667969 262.066406 244.390625 C 261.925781 245.113281 261.746094 245.828125 261.53125 246.53125 C 261.316406 247.238281 261.070312 247.929688 260.789062 248.609375 C 260.503906 249.292969 260.191406 249.957031 259.84375 250.605469 C 259.496094 251.257812 259.117188 251.886719 258.707031 252.5 C 258.296875 253.113281 257.859375 253.703125 257.394531 254.273438 C 256.925781 254.84375 256.429688 255.390625 255.910156 255.910156 C 255.390625 256.429688 254.84375 256.925781 254.273438 257.394531 C 253.703125 257.859375 253.113281 258.296875 252.5 258.707031 C 251.886719 259.117188 251.257812 259.496094 250.605469 259.84375 C 249.957031 260.191406 249.292969 260.503906 248.609375 260.789062 C 247.929688 261.070312 247.238281 261.316406 246.53125 261.53125 C 245.828125 261.746094 245.113281 261.925781 244.390625 262.066406 C 243.667969 262.210938 242.9375 262.320312 242.207031 262.390625 C 241.472656 262.464844 240.738281 262.5 240 262.5 L 135 262.5 C 134.261719 262.5 133.527344 262.464844 132.792969 262.390625 C 132.0625 262.320312 131.332031 262.210938 130.609375 262.066406 C 129.886719 261.925781 129.171875 261.746094 128.46875 261.53125 C 127.761719 261.316406 127.070312 261.070312 126.390625 260.789062 C 125.707031 260.503906 125.042969 260.191406 124.394531 259.84375 C 123.742188 259.496094 123.113281 259.117188 122.5 258.707031 C 121.886719 258.296875 121.296875 257.859375 120.726562 257.394531 C 120.15625 256.925781 119.609375 256.429688 119.089844 255.910156 C 118.570312 255.390625 118.074219 254.84375 117.605469 254.273438 C 117.140625 253.703125 116.703125 253.113281 116.292969 252.5 C 115.882812 251.886719 115.503906 251.257812 115.15625 250.605469 C 114.808594 249.957031 114.496094 249.292969 114.210938 248.609375 C 113.929688 247.929688 113.683594 247.238281 113.46875 246.53125 C 113.253906 245.828125 113.074219 245.113281 112.933594 244.390625 C 112.789062 243.667969 112.679688 242.9375 112.609375 242.207031 C 112.535156 241.472656 112.5 240.738281 112.5 240 L 112.5 135 C 112.5 134.261719 112.535156 133.527344 112.609375 132.792969 C 112.679688 132.0625 112.789062 131.332031 112.933594 130.609375 C 113.074219 129.886719 113.253906 129.171875 113.46875 128.46875 C 113.683594 127.761719 113.929688 127.070312 114.210938 126.390625 C 114.496094 125.707031 114.808594 125.042969 115.15625 124.394531 C 115.503906 123.742188 115.882812 123.113281 116.292969 122.5 C 116.703125 121.886719 117.140625 121.296875 117.605469 120.726562 C 118.074219 120.15625 118.570312 119.609375 119.089844 119.089844 C 119.609375 118.570312 120.15625 118.074219 120.726562 117.605469 C 121.296875 117.140625 121.886719 116.703125 122.5 116.292969 C 123.113281 115.882812 123.742188 115.503906 124.394531 115.15625 C 125.042969 114.808594 125.707031 114.496094 126.390625 114.210938 C 127.070312 113.929688 127.761719 113.683594 128.46875 113.46875 C 129.171875 113.253906 129.886719 113.074219 130.609375 112.933594 C 131.332031 112.789062 132.0625 112.679688 132.792969 112.609375 C 133.527344 112.535156 134.261719 112.5 135 112.5 Z M 135 112.5 " fill-opacity="1" fill-rule="nonzero"/></g><path fill="#ffffff" d="M 164.941406 152.929688 C 164.941406 153.640625 164.871094 154.347656 164.734375 155.042969 C 164.59375 155.742188 164.386719 156.421875 164.117188 157.078125 C 163.84375 157.734375 163.511719 158.359375 163.113281 158.953125 C 162.71875 159.542969 162.269531 160.089844 161.765625 160.59375 C 161.261719 161.097656 160.714844 161.546875 160.125 161.941406 C 159.53125 162.339844 158.90625 162.671875 158.25 162.945312 C 157.59375 163.214844 156.914062 163.421875 156.214844 163.5625 C 155.519531 163.699219 154.8125 163.769531 154.101562 163.769531 C 153.390625 163.769531 152.683594 163.699219 151.988281 163.5625 C 151.289062 163.421875 150.609375 163.214844 149.953125 162.945312 C 149.296875 162.671875 148.671875 162.339844 148.078125 161.941406 C 147.488281 161.546875 146.941406 161.097656 146.4375 160.59375 C 145.933594 160.089844 145.484375 159.542969 145.089844 158.953125 C 144.691406 158.359375 144.359375 157.734375 144.085938 157.078125 C 143.816406 156.421875 143.609375 155.742188 143.46875 155.042969 C 143.332031 154.347656 143.261719 153.640625 143.261719 152.929688 C 143.261719 152.21875 143.332031 151.511719 143.46875 150.816406 C 143.609375 150.117188 143.816406 149.4375 144.085938 148.78125 C 144.359375 148.125 144.691406 147.5 145.089844 146.90625 C 145.484375 146.316406 145.933594 145.769531 146.4375 145.265625 C 146.941406 144.761719 147.488281 144.3125 148.078125 143.917969 C 148.671875 143.519531 149.296875 143.1875 149.953125 142.914062 C 150.609375 142.644531 151.289062 142.4375 151.988281 142.296875 C 152.683594 142.160156 153.390625 142.089844 154.101562 142.089844 C 154.8125 142.089844 155.519531 142.160156 156.214844 142.296875 C 156.914062 142.4375 157.59375 142.644531 158.25 142.914062 C 158.90625 143.1875 159.53125 143.519531 160.125 143.917969 C 160.714844 144.3125 161.261719 144.761719 161.765625 145.265625 C 162.269531 145.769531 162.71875 146.316406 163.113281 146.90625 C 163.511719 147.5 163.84375 148.125 164.117188 148.78125 C 164.386719 149.4375 164.59375 150.117188 164.734375 150.816406 C 164.871094 151.511719 164.941406 152.21875 164.941406 152.929688 Z M 164.941406 152.929688 " fill-opacity="1" fill-rule="nonzero"/><path stroke-linecap="butt" transform="matrix(0.292969, 0, 0, 0.292969, 112.499997, 112.499993)" fill-opacity="1" fill="#ffffff" fill-rule="nonzero" stroke-linejoin="miter" d="M 244.000025 194.000037 L 244.000025 392.000049 M 142.000019 194.000037 L 142.000019 392.000049 " stroke="#ffffff" stroke-width="66" stroke-opacity="1" stroke-miterlimit="4"/><path fill="#ffffff" d="M 193.359375 195.117188 C 193.359375 189.257812 197.167969 183.398438 203.90625 183.398438 C 210.9375 183.398438 213.574219 188.671875 213.574219 196.582031 L 213.574219 227.34375 L 232.910156 227.34375 L 232.910156 194.238281 C 232.910156 176.367188 223.535156 168.164062 210.644531 168.164062 C 200.683594 168.164062 195.703125 173.730469 193.359375 177.539062 " fill-opacity="1" fill-rule="nonzero"/></svg>