<svg xmlns="http://www.w3.org/2000/svg" xmlns:xlink="http://www.w3.org/1999/xlink" width="500" zoomAndPan="magnify" viewBox="0 0 375 374.999991" height="500" preserveAspectRatio="xMidYMid meet" version="1.0"><defs><clipPath id="id1"><path d="M 120 112.5 L 254.90625 112.5 L 254.90625 262.5 L 120 262.5 Z M 120 112.5 " clip-rule="nonzero"/></clipPath></defs><g clip-path="url(#id1)"><path fill="#ffffff" d="M 254.8125 162.375 C 254.8125 239.25 187.40625 262.5 187.40625 262.5 C 187.40625 262.5 120 239.25 120 162.375 C 120 153 120.75 145.125 121.496094 138.75 C 122.621094 129.375 128.988281 121.875 137.976562 119.625 C 149.582031 116.25 167.933594 112.5 187.40625 112.5 C 206.878906 112.5 225.230469 116.25 237.210938 119.625 C 246.199219 121.875 252.566406 129.75 253.6875 138.75 C 254.0625 145.125 254.8125 153.375 254.8125 162.375 Z M 254.8125 162.375 " fill-opacity="1" fill-rule="nonzero"/><path fill="#961711" d="M 187.40625 123.75 C 205.753906 123.75 222.980469 127.5 234.214844 130.5 C 238.710938 131.625 241.707031 135.375 242.453125 140.25 C 243.203125 147.375 243.578125 154.875 243.578125 162.375 C 243.578125 220.875 200.511719 244.5 187.40625 250.125 C 174.300781 244.125 131.234375 220.5 131.234375 162.375 C 131.234375 154.875 131.609375 147.375 132.359375 140.25 C 132.730469 135.375 136.101562 131.625 140.597656 130.5 C 151.832031 127.5 169.058594 123.75 187.40625 123.75 M 187.40625 112.5 C 167.933594 112.5 149.582031 116.25 137.601562 119.625 C 128.988281 121.875 122.246094 129.75 121.496094 138.75 C 120.75 145.125 120 153.375 120 162.375 C 120 239.25 187.40625 262.5 187.40625 262.5 C 187.40625 262.5 254.8125 239.25 254.8125 162.375 C 254.8125 153 254.0625 145.125 253.316406 138.75 C 252.191406 129.375 245.824219 121.875 236.835938 119.625 C 225.230469 116.25 206.878906 112.5 187.40625 112.5 Z M 187.40625 112.5 " fill-opacity="1" fill-rule="nonzero"/></g><path fill="#961711" d="M 183.660156 202.5 L 191.152344 202.5 L 191.152344 232.5 L 183.660156 232.5 Z M 183.660156 202.5 " fill-opacity="1" fill-rule="nonzero"/><path fill="#961711" d="M 187.40625 135 C 187.40625 135 164.9375 153.75 164.9375 183.75 C 164.9375 203.25 177.296875 215.625 183.660156 221.25 L 187.40625 210 L 191.152344 221.25 C 197.515625 215.625 209.875 203.25 209.875 183.75 C 209.875 153.75 187.40625 135 187.40625 135 Z M 187.40625 135 " fill-opacity="1" fill-rule="nonzero"/><path fill="#961711" d="M 187.40625 135 C 187.40625 135 164.9375 153.75 164.9375 183.75 C 164.9375 203.25 177.296875 215.625 183.660156 221.25 L 187.40625 210 Z M 187.40625 135 " fill-opacity="1" fill-rule="nonzero"/></svg>