<svg xmlns="http://www.w3.org/2000/svg" xmlns:xlink="http://www.w3.org/1999/xlink" width="500" zoomAndPan="magnify" viewBox="0 0 375 374.999991" height="500" preserveAspectRatio="xMidYMid meet" version="1.0"><defs><clipPath id="id1"><path d="M 112.5 112.5 L 262.5 112.5 L 262.5 262.5 L 112.5 262.5 Z M 112.5 112.5 " clip-rule="nonzero"/></clipPath></defs><g clip-path="url(#id1)"><path fill="#ffffff" d="M 112.5 125 L 112.5 250 C 112.5 256.90625 118.09375 262.5 125 262.5 L 250 262.5 C 256.90625 262.5 262.5 256.90625 262.5 250 L 262.5 125 C 262.5 118.09375 256.90625 112.5 250 112.5 L 125 112.5 C 118.09375 112.5 112.5 118.09375 112.5 125 Z M 112.5 125 " fill-opacity="1" fill-rule="nonzero"/><path fill="#961711" d="M 250 118.75 C 253.445312 118.75 256.25 121.554688 256.25 125 L 256.25 250 C 256.25 253.445312 253.445312 256.25 250 256.25 L 125 256.25 C 121.554688 256.25 118.75 253.445312 118.75 250 L 118.75 125 C 118.75 121.554688 121.554688 118.75 125 118.75 Z M 250 112.5 L 125 112.5 C 118.101562 112.5 112.5 118.09375 112.5 125 L 112.5 250 C 112.5 256.90625 118.101562 262.5 125 262.5 L 250 262.5 C 256.898438 262.5 262.5 256.90625 262.5 250 L 262.5 125 C 262.5 118.09375 256.898438 112.5 250 112.5 Z M 250 112.5 " fill-opacity="1" fill-rule="nonzero"/></g><path fill="#961711" d="M 209.71875 215.636719 C 204.242188 215.636719 199.59375 214.492188 196.90625 212.949219 C 196.5 212.742188 196.40625 212.4375 196.40625 211.917969 L 196.40625 202.75 C 196.40625 202.125 196.707031 201.917969 197.117188 202.226562 C 201.019531 204.804688 205.570312 205.9375 209.695312 205.9375 C 214.644531 205.9375 216.707031 203.875 216.707031 201.085938 C 216.707031 198.820312 215.269531 196.855469 208.976562 193.554688 C 200.101562 189.304688 196.386719 184.992188 196.386719 177.761719 C 196.386719 169.71875 202.675781 163.011719 213.605469 163.011719 C 218.980469 163.011719 222.757812 163.835938 224.820312 164.761719 C 225.332031 165.074219 225.445312 165.585938 225.445312 166 L 225.445312 174.5625 C 225.445312 175.082031 225.132812 175.394531 224.507812 175.1875 C 221.730469 173.539062 217.632812 172.5 213.613281 172.5 L 213.636719 172.523438 C 208.6875 172.523438 207.039062 175 207.039062 177.0625 C 207.039062 179.332031 208.164062 180.875 214.769531 184.28125 C 224.570312 189.03125 227.65625 193.5625 227.65625 200.261719 C 227.65625 210.261719 220.03125 215.636719 209.71875 215.636719 Z M 209.71875 215.636719 " fill-opacity="1" fill-rule="nonzero"/><path fill="#961711" d="M 166.261719 145.710938 C 160.074219 145.710938 154.175781 145.820312 150.148438 146.023438 C 149.625 146.023438 148.75 146.332031 148.75 146.75 L 148.757812 146.75 L 148.757812 213.988281 C 148.757812 214.507812 148.957031 214.695312 149.476562 214.695312 L 159.125 214.695312 C 159.636719 214.695312 159.84375 214.488281 159.84375 213.96875 L 159.84375 189.957031 C 161.5 189.957031 162.3125 190.0625 164.6875 190.0625 C 178.8125 190.0625 190.324219 183.25 190.324219 167.375 C 190.324219 155.210938 183.585938 145.710938 166.261719 145.710938 Z M 164.90625 180.050781 C 162.425781 180.050781 161.289062 180.050781 159.851562 179.949219 L 159.851562 155.820312 C 160.988281 155.710938 163.355469 155.613281 165.832031 155.613281 C 174.179688 155.613281 179.09375 159.636719 179.09375 167.574219 C 179.09375 177.476562 172.21875 180.050781 164.90625 180.050781 Z M 164.90625 180.050781 " fill-opacity="1" fill-rule="nonzero"/></svg>