<svg xmlns="http://www.w3.org/2000/svg" xmlns:xlink="http://www.w3.org/1999/xlink" width="500" zoomAndPan="magnify" viewBox="0 0 100 100" height="500" preserveAspectRatio="xMidYMid meet" version="1.0"><defs><clipPath id="id1"><path d="M 112.5 120 L 262.5 120 L 262.5 255 L 112.5 255 Z M 112.5 120 " clip-rule="nonzero"/></clipPath></defs><g clip-path="url(#id1)"><path fill="#961711" d="M 235.726562 164.042969 C 234.175781 163.507812 232.570312 163.003906 230.910156 162.523438 C 231.183594 161.414062 231.433594 160.316406 231.65625 159.238281 C 235.300781 141.542969 232.917969 127.285156 224.773438 122.589844 C 216.964844 118.089844 204.191406 122.78125 191.292969 134.003906 C 190.054688 135.082031 188.808594 136.222656 187.570312 137.421875 C 186.738281 136.628906 185.914062 135.863281 185.089844 135.128906 C 171.574219 123.132812 158.023438 118.078125 149.886719 122.785156 C 142.085938 127.300781 139.777344 140.703125 143.058594 157.476562 C 143.375 159.097656 143.746094 160.75 144.164062 162.433594 C 142.25 162.976562 140.398438 163.558594 138.625 164.175781 C 122.777344 169.695312 112.65625 178.351562 112.65625 187.332031 C 112.65625 196.601562 123.523438 205.90625 140.027344 211.546875 C 141.332031 211.988281 142.683594 212.410156 144.074219 212.808594 C 143.625 214.625 143.230469 216.40625 142.902344 218.148438 C 139.769531 234.632812 142.214844 247.71875 149.996094 252.199219 C 158.03125 256.835938 171.519531 252.070312 184.652344 240.597656 C 185.691406 239.691406 186.734375 238.730469 187.773438 237.722656 C 189.132812 239.019531 190.480469 240.253906 191.820312 241.410156 C 204.542969 252.351562 217.109375 256.769531 224.878906 252.277344 C 232.90625 247.628906 235.523438 233.566406 232.128906 216.464844 C 231.875 215.15625 231.570312 213.824219 231.234375 212.46875 C 232.183594 212.1875 233.113281 211.894531 234.019531 211.597656 C 251.179688 205.910156 262.34375 196.730469 262.34375 187.332031 C 262.34375 178.320312 251.894531 169.605469 235.726562 164.042969 Z M 232.007812 205.53125 C 231.1875 205.800781 230.347656 206.0625 229.492188 206.316406 C 227.597656 200.324219 225.042969 193.949219 221.910156 187.359375 C 224.898438 180.933594 227.351562 174.640625 229.195312 168.683594 C 230.726562 169.125 232.210938 169.59375 233.644531 170.085938 C 247.496094 174.851562 255.945312 181.902344 255.945312 187.332031 C 255.945312 193.113281 246.824219 200.621094 232.007812 205.53125 Z M 225.855469 217.707031 C 227.359375 225.269531 227.570312 232.105469 226.574219 237.453125 C 225.6875 242.257812 223.890625 245.460938 221.675781 246.742188 C 216.957031 249.472656 206.871094 245.921875 195.996094 236.566406 C 194.746094 235.492188 193.488281 234.34375 192.230469 233.136719 C 196.445312 228.523438 200.660156 223.164062 204.777344 217.207031 C 212.011719 216.570312 218.847656 215.519531 225.050781 214.089844 C 225.355469 215.320312 225.621094 216.523438 225.855469 217.707031 Z M 163.691406 246.269531 C 159.082031 247.898438 155.410156 247.945312 153.191406 246.664062 C 148.472656 243.941406 146.507812 233.433594 149.183594 219.34375 C 149.492188 217.730469 149.855469 216.070312 150.277344 214.375 C 156.410156 215.730469 163.195312 216.707031 170.449219 217.289062 C 174.59375 223.117188 178.929688 228.472656 183.296875 233.160156 C 182.34375 234.082031 181.390625 234.957031 180.445312 235.78125 C 174.640625 240.863281 168.820312 244.460938 163.691406 246.269531 Z M 142.097656 205.496094 C 134.800781 203 128.773438 199.761719 124.640625 196.222656 C 120.929688 193.046875 119.054688 189.890625 119.054688 187.332031 C 119.054688 181.882812 127.179688 174.933594 140.734375 170.210938 C 142.378906 169.636719 144.097656 169.097656 145.886719 168.589844 C 147.757812 174.679688 150.214844 181.046875 153.179688 187.484375 C 150.175781 194.019531 147.683594 200.488281 145.792969 206.652344 C 144.519531 206.285156 143.285156 205.898438 142.097656 205.496094 Z M 149.335938 156.25 C 146.523438 141.878906 148.390625 131.039062 153.09375 128.316406 C 158.101562 125.421875 169.175781 129.550781 180.84375 139.910156 C 181.589844 140.574219 182.339844 141.265625 183.09375 141.980469 C 178.742188 146.648438 174.445312 151.964844 170.339844 157.753906 C 163.300781 158.40625 156.5625 159.457031 150.367188 160.859375 C 149.976562 159.292969 149.632812 157.753906 149.335938 156.25 Z M 213.898438 172.183594 C 212.421875 169.628906 210.902344 167.132812 209.351562 164.703125 C 214.128906 165.304688 218.699219 166.109375 222.996094 167.085938 C 221.710938 171.21875 220.105469 175.542969 218.210938 179.972656 C 216.851562 177.394531 215.414062 174.796875 213.898438 172.183594 Z M 187.570312 146.550781 C 190.523438 149.746094 193.476562 153.308594 196.382812 157.179688 C 193.453125 157.042969 190.488281 156.96875 187.5 156.96875 C 184.542969 156.96875 181.601562 157.039062 178.6875 157.175781 C 181.59375 153.34375 184.578125 149.78125 187.570312 146.550781 Z M 161.074219 172.230469 C 159.59375 174.792969 158.183594 177.378906 156.847656 179.96875 C 154.984375 175.550781 153.390625 171.210938 152.089844 167.019531 C 156.363281 166.066406 160.917969 165.285156 165.660156 164.691406 C 164.089844 167.144531 162.554688 169.65625 161.074219 172.230469 Z M 165.796875 210.421875 C 160.894531 209.878906 156.273438 209.136719 152.003906 208.207031 C 153.324219 203.941406 154.953125 199.511719 156.855469 195 C 158.195312 197.589844 159.609375 200.171875 161.097656 202.742188 C 162.613281 205.363281 164.1875 207.921875 165.796875 210.421875 Z M 187.746094 228.558594 C 184.71875 225.292969 181.695312 221.675781 178.742188 217.789062 C 181.605469 217.898438 184.53125 217.957031 187.5 217.957031 C 190.550781 217.957031 193.570312 217.886719 196.535156 217.757812 C 193.621094 221.714844 190.675781 225.339844 187.746094 228.558594 Z M 218.269531 194.773438 C 220.265625 199.332031 221.957031 203.738281 223.296875 207.933594 C 218.957031 208.921875 214.269531 209.714844 209.332031 210.3125 C 210.890625 207.851562 212.421875 205.308594 213.929688 202.695312 C 215.457031 200.054688 216.898438 197.40625 218.269531 194.773438 Z M 208.386719 199.503906 C 206.046875 203.5625 203.644531 207.429688 201.207031 211.082031 C 196.769531 211.398438 192.179688 211.5625 187.5 211.5625 C 182.839844 211.5625 178.308594 211.421875 173.945312 211.136719 C 171.410156 207.4375 168.957031 203.554688 166.632812 199.539062 C 164.3125 195.539062 162.179688 191.5 160.246094 187.484375 C 162.179688 183.460938 164.308594 179.417969 166.613281 175.421875 C 168.925781 171.417969 171.355469 167.550781 173.871094 163.875 C 178.320312 163.535156 182.886719 163.359375 187.5 163.359375 C 192.136719 163.359375 196.703125 163.539062 201.152344 163.878906 C 203.632812 167.53125 206.046875 171.378906 208.367188 175.386719 C 210.714844 179.441406 212.871094 183.457031 214.816406 187.394531 C 212.875 191.398438 210.726562 195.457031 208.386719 199.503906 Z M 221.578125 128.125 C 226.59375 131.015625 228.539062 142.667969 225.390625 157.949219 C 225.191406 158.921875 224.960938 159.917969 224.71875 160.921875 C 218.507812 159.492188 211.765625 158.425781 204.707031 157.761719 C 200.59375 151.90625 196.328125 146.585938 192.050781 141.976562 C 193.203125 140.871094 194.351562 139.816406 195.492188 138.820312 C 206.542969 129.210938 216.875 125.414062 221.578125 128.125 Z M 187.5 173.96875 C 194.878906 173.96875 200.867188 179.949219 200.867188 187.328125 C 200.867188 194.707031 194.878906 200.691406 187.5 200.691406 C 180.121094 200.691406 174.132812 194.707031 174.132812 187.328125 C 174.132812 179.949219 180.121094 173.96875 187.5 173.96875 Z M 187.5 173.96875 " fill-opacity="1" fill-rule="nonzero"/></g></svg>