<svg xmlns="http://www.w3.org/2000/svg" xmlns:xlink="http://www.w3.org/1999/xlink" width="500" zoomAndPan="magnify" viewBox="0 0 375 374.999991" height="500" preserveAspectRatio="xMidYMid meet" version="1.0"><defs><clipPath id="id1"><path d="M 112.5 112.5 L 262.5 112.5 L 262.5 262.5 L 112.5 262.5 Z M 112.5 112.5 " clip-rule="nonzero"/></clipPath></defs><g clip-path="url(#id1)"><path fill="#961711" d="M 243.75 262.5 L 131.25 262.5 C 120.898438 262.5 112.5 254.101562 112.5 243.75 L 112.5 131.25 C 112.5 120.898438 120.898438 112.5 131.25 112.5 L 243.75 112.5 C 254.101562 112.5 262.5 120.898438 262.5 131.25 L 262.5 243.75 C 262.5 254.101562 254.101562 262.5 243.75 262.5 Z M 243.75 262.5 " fill-opacity="1" fill-rule="nonzero"/></g><path fill="#ffffff" d="M 170.101562 225.601562 C 205.460938 225.601562 224.8125 196.273438 224.8125 170.886719 C 224.8125 170.0625 224.8125 169.238281 224.773438 168.414062 C 228.523438 165.710938 231.789062 162.300781 234.375 158.4375 C 230.925781 159.976562 227.210938 160.988281 223.3125 161.476562 C 227.289062 159.113281 230.324219 155.324219 231.789062 150.824219 C 228.074219 153.039062 223.949219 154.613281 219.5625 155.476562 C 216.039062 151.726562 211.050781 149.398438 205.539062 149.398438 C 194.925781 149.398438 186.300781 158.023438 186.300781 168.636719 C 186.300781 170.136719 186.488281 171.601562 186.789062 173.023438 C 170.8125 172.238281 156.636719 164.550781 147.148438 152.925781 C 145.5 155.773438 144.5625 159.074219 144.5625 162.601562 C 144.5625 169.273438 147.976562 175.164062 153.113281 178.613281 C 149.960938 178.5 147 177.636719 144.414062 176.210938 C 144.414062 176.289062 144.414062 176.363281 144.414062 176.476562 C 144.414062 185.773438 151.050781 193.574219 159.824219 195.335938 C 158.210938 195.789062 156.523438 196.011719 154.761719 196.011719 C 153.523438 196.011719 152.324219 195.898438 151.164062 195.675781 C 153.601562 203.324219 160.726562 208.875 169.125 209.023438 C 162.523438 214.199219 154.238281 217.273438 145.238281 217.273438 C 143.699219 217.273438 142.164062 217.199219 140.664062 217.011719 C 149.136719 222.414062 159.261719 225.601562 170.101562 225.601562 " fill-opacity="1" fill-rule="nonzero"/></svg>