<svg xmlns="http://www.w3.org/2000/svg" xmlns:xlink="http://www.w3.org/1999/xlink" width="500" zoomAndPan="magnify" viewBox="0 0 375 374.999991" height="500" preserveAspectRatio="xMidYMid meet" version="1.0"><defs><clipPath id="id1"><path d="M 221 115 L 260.625 115 L 260.625 260 L 221 260 Z M 221 115 " clip-rule="nonzero"/></clipPath></defs><g clip-path="url(#id1)"><path fill="#961711" d="M 260.625 140.605469 L 260.625 234.394531 C 260.625 239.015625 257.75 243.125 253.421875 244.652344 L 221.332031 259.714844 L 224.246094 220.242188 L 224.246094 154.757812 L 221.332031 115.285156 L 253.421875 130.347656 C 257.75 131.875 260.625 135.984375 260.625 140.605469 Z M 260.625 140.605469 " fill-opacity="1" fill-rule="nonzero"/></g><path fill="#961711" d="M 133.292969 223.503906 L 224.246094 154.757812 L 224.246094 119.660156 C 224.246094 115.300781 218.851562 113.265625 215.96875 116.53125 L 117.496094 206.558594 C 114.222656 209.578125 114.40625 214.808594 117.886719 217.589844 C 117.886719 217.589844 122.703125 222.074219 124.445312 223.316406 C 127.121094 225.226562 130.640625 225.445312 133.292969 223.503906 Z M 133.292969 223.503906 " fill-opacity="1" fill-rule="nonzero"/><path fill="#961711" d="M 133.292969 151.496094 L 224.246094 220.242188 L 224.246094 255.339844 C 224.246094 259.699219 218.851562 261.734375 215.96875 258.46875 L 117.496094 168.441406 C 114.222656 165.421875 114.40625 160.191406 117.886719 157.410156 C 117.886719 157.410156 122.703125 152.925781 124.445312 151.683594 C 127.121094 149.773438 130.640625 149.554688 133.292969 151.496094 Z M 133.292969 151.496094 " fill-opacity="1" fill-rule="nonzero"/></svg>